<?xml version="1.0" encoding="iso-8859-1"?>
<!-- Uploaded to: SVG Repo, www.svgrepo.com, Generator: SVG Repo Mixer Tools -->
<!DOCTYPE svg PUBLIC "-//W3C//DTD SVG 1.1//EN" "http://www.w3.org/Graphics/SVG/1.1/DTD/svg11.dtd">
<svg fill="#000000" version="1.1" id="Capa_1" xmlns="http://www.w3.org/2000/svg" xmlns:xlink="http://www.w3.org/1999/xlink" 
	 width="800px" height="800px" viewBox="0 0 593.443 593.443"
	 xml:space="preserve">
<g>
	<g>
		<path d="M561.418,160.314c-8.641-8.551-18.531-15.485-29.457-20.663V86.321c0-32.062-26.068-58.146-58.107-58.146
			c-4.238,0-8.492,0.468-12.646,1.391l-415.18,92.272c-12.865,2.859-24.492,10.095-32.738,20.375
			C5.042,152.494,0.5,165.414,0.5,178.593v114.122c0,13.175,4.54,26.091,12.781,36.371s19.864,17.518,32.724,20.381l20.282,4.516
			c0.652,2.117,1.45,4.219,2.393,6.295l0.24,0.527l0.254,0.52l83.132,170.553c9.556,20.312,30.12,33.393,52.609,33.393
			c0.145,0,0.286,0,0.431-0.002l5.937-0.037c19.598-0.125,37.679-10.008,48.366-26.438c10.687-16.43,12.393-36.963,4.562-54.93
			l-0.182-0.418l-0.19-0.412l-15.235-33.027c2.377-1.014,4.802-2.164,7.23-3.48c17.921-9.707,29.554-24.525,33.981-42.781
			l171.372,38.15c4.158,0.926,8.42,1.395,12.668,1.395c32.039,0,58.107-26.084,58.107-58.145v-53.324
			c10.926-5.178,20.816-12.111,29.457-20.662c9.857-9.756,17.605-21.139,23.029-33.831c5.639-13.192,8.496-27.186,8.496-41.591
			s-2.857-28.399-8.496-41.592C579.023,181.452,571.275,170.07,561.418,160.314z M489.121,342.124v43.02
			c0,8.633-7.049,15.307-15.268,15.307c-1.104,0-2.229-0.121-3.357-0.373l-272.958-60.766l-26.331-5.861l-70.892-15.783
			l-26.489-5.896l-18.511-4.121c-6.998-1.559-11.975-7.766-11.975-14.934V178.593c0-7.171,4.98-13.379,11.98-14.935l415.181-92.272
			c1.129-0.251,2.25-0.37,3.352-0.37c8.219,0,15.268,6.674,15.268,15.306v43.027v42.868v63.436v0.168v63.436V342.124
			L489.121,342.124z M211.009,522.39l-5.997,0.037c-0.033,0-0.065,0-0.097,0c-5.997,0-11.446-3.506-13.929-8.971L118.969,365.71
			l48.555,10.809l57.414,124.459C229.326,511.044,221.991,522.319,211.009,522.39z M220.103,388.224l27.859,6.201
			c-1.687,5.918-5.484,10.398-11.699,13.967c-1.86,1.068-3.766,1.953-5.615,2.689L220.103,388.224z M531.961,280.021V235.82v-0.168
			V191.45c11.227,11.452,18.143,27.068,18.143,44.285S543.188,268.569,531.961,280.021z"/>
		<path d="M204.915,565.769c-22.608,0-43.437-13.22-53.062-33.68L68.471,361.023l-0.246-0.54c-0.903-1.987-1.686-4.03-2.329-6.077
			l-20-4.452c-12.971-2.889-24.692-10.188-33.005-20.557C4.578,319.029,0,306.002,0,292.714V178.593
			c0-13.292,4.581-26.323,12.898-36.692c8.317-10.368,20.044-17.667,33.02-20.551l415.18-92.272
			c4.191-0.931,8.482-1.402,12.755-1.402c32.316,0,58.607,26.309,58.607,58.646v53.015c10.861,5.186,20.72,12.123,29.309,20.623
			c9.903,9.801,17.688,21.236,23.138,33.988c5.664,13.252,8.536,27.312,8.536,41.789s-2.872,28.536-8.536,41.788
			c-5.45,12.752-13.234,24.188-23.138,33.989c-8.589,8.5-18.448,15.437-29.309,20.622v53.009c0,32.337-26.291,58.645-58.607,58.645
			c-4.286,0-8.585-0.474-12.776-1.406l-170.895-38.044c-4.573,18.277-16.359,33.011-34.112,42.626
			c-2.149,1.165-4.434,2.273-6.799,3.298l15.397,33.4c7.897,18.12,6.177,38.831-4.601,55.402
			c-10.779,16.571-29.016,26.539-48.783,26.665L204.915,565.769z M473.854,28.675c-4.199,0-8.418,0.464-12.538,1.379l-415.18,92.272
			c-12.755,2.835-24.281,10.009-32.457,20.2C5.502,152.719,1,165.528,1,178.593v114.122c0,13.061,4.5,25.867,12.671,36.058
			c8.171,10.19,19.692,17.366,32.442,20.205l20.566,4.579l0.085,0.277c0.646,2.1,1.444,4.197,2.37,6.235l0.488,1.034l83.132,170.554
			c9.463,20.116,29.936,33.111,52.159,33.111l6.364-0.039c19.429-0.124,37.354-9.922,47.95-26.21
			c10.594-16.289,12.285-36.646,4.522-54.457l-0.368-0.821l-15.451-33.494l0.474-0.202c2.505-1.068,4.923-2.232,7.188-3.46
			c17.651-9.562,29.316-24.243,33.734-42.46l0.116-0.477l171.85,38.257c4.121,0.918,8.347,1.383,12.56,1.383
			c31.765,0,57.607-25.859,57.607-57.645v-53.641l0.286-0.136c10.871-5.151,20.735-12.071,29.319-20.565
			c9.811-9.709,17.522-21.038,22.921-33.671c5.611-13.128,8.456-27.055,8.456-41.395s-2.845-28.268-8.456-41.396
			c-5.398-12.632-13.11-23.96-22.921-33.67c-8.584-8.495-18.448-15.414-29.319-20.566l-0.286-0.135V86.321
			C531.461,54.535,505.618,28.675,473.854,28.675z M205.015,522.927h-0.1c-6.181,0-11.827-3.637-14.384-9.264l-72.465-148.667
			l49.81,11.088l57.517,124.684c2.132,4.892,1.668,10.472-1.235,14.937c-2.904,4.465-7.818,7.151-13.144,7.186L205.015,522.927z
			 M119.873,366.424l71.562,146.813c2.401,5.283,7.69,8.689,13.48,8.689l6.091-0.037c4.989-0.032,9.592-2.548,12.312-6.73
			s3.154-9.409,1.161-13.981l-57.305-124.225L119.873,366.424z M230.392,411.721l-11.166-24.204l29.362,6.535l-0.146,0.51
			c-1.7,5.965-5.603,10.631-11.931,14.264c-1.73,0.994-3.642,1.909-5.679,2.721L230.392,411.721z M220.979,388.931l9.922,21.509
			c1.829-0.749,3.547-1.583,5.112-2.481c5.993-3.44,9.602-7.634,11.316-13.162L220.979,388.931z M473.854,400.95
			c-1.155,0-2.321-0.13-3.467-0.385L55.208,308.138c-7.281-1.622-12.367-7.964-12.367-15.422V178.593
			c0-7.462,5.087-13.804,12.372-15.423l415.181-92.272c1.14-0.253,2.304-0.382,3.46-0.382c8.694,0,15.768,7.091,15.768,15.806
			v298.821C489.621,393.859,482.548,400.95,473.854,400.95z M473.854,71.516c-1.083,0-2.174,0.121-3.243,0.358L55.43,164.146
			c-6.823,1.516-11.589,7.457-11.589,14.447v114.122c0,6.987,4.764,12.927,11.584,14.446l415.18,92.428
			c1.074,0.24,2.167,0.361,3.249,0.361c8.143,0,14.768-6.643,14.768-14.807V86.322C488.621,78.158,481.996,71.516,473.854,71.516z
			 M531.461,281.245v-91.019l0.857,0.874c11.791,12.029,18.285,27.88,18.285,44.635c0,16.755-6.494,32.607-18.285,44.636
			L531.461,281.245z M532.461,192.691v86.088c11.064-11.727,17.143-26.963,17.143-43.044S543.525,204.418,532.461,192.691z"/>
	</g>
</g>
</svg>